<?xml version="1.0" encoding="UTF-8" standalone="no"?><!DOCTYPE svg PUBLIC "-//W3C//DTD SVG 1.1//EN" "http://www.w3.org/Graphics/SVG/1.1/DTD/svg11.dtd"><svg width="100%" height="100%" viewBox="0 0 5394 871" version="1.1" xmlns="http://www.w3.org/2000/svg" xmlns:xlink="http://www.w3.org/1999/xlink" xml:space="preserve" xmlns:serif="http://www.serif.com/" style="fill-rule:evenodd;clip-rule:evenodd;stroke-linejoin:round;stroke-miterlimit:2;"><g transform="matrix(1,0,0,1,-1401.06,-2318.29)"><path d="M2266.41,2338.66c-9.004,53.898 -25.21,127.709 -117.043,510.267c-83.731,-316.848 -100.837,-385.258 -125.146,-510.267l-42.316,0c-18.852,0 -55.688,0 -80.888,-1.8l-0,14.302l0.9,1.786c14.4,5.405 39.6,33.309 39.6,81.916l-0,272.742c-0,252.038 -2.7,289.844 -6.3,315.948c-3.6,23.404 -15.3,33.305 -33.3,38.706l-0.9,1.786l-0,14.302c25.2,-1.8 40.5,-1.8 59.344,-1.8c18.843,-0 34.149,-0 59.358,1.8l0,-14.302l-0.9,-1.786c-18.007,-5.401 -29.711,-15.302 -33.312,-38.706c-3.602,-26.104 -6.303,-63.91 -6.303,-315.948c0,-34.205 0,-97.215 -2.692,-208.832c52.211,185.374 104.43,404.974 138.642,584.974l1.801,0.9l14.405,-0l1.801,-0.9c32.412,-162 52.219,-247.5 78.328,-359.1c32.412,-141.3 56.721,-225.9 72.024,-278.1c-2.696,36 -2.696,138.6 -2.696,261c-0,252.096 -2.703,289.902 -6.305,316.006c-3.601,23.404 -15.305,33.305 -33.312,38.706l-0.9,1.786l-0,14.302c25.209,-1.8 60.288,-1.8 79.161,-1.8c18.872,-0 53.943,-0 79.143,1.8l0,-14.302l-0.9,-1.786c-18,-5.401 -29.7,-15.302 -33.3,-38.706c-3.6,-26.104 -6.3,-63.91 -6.3,-315.948c0,-252.039 2.7,-289.844 6.3,-315.948c3.6,-23.404 15.3,-33.305 33.3,-38.71l0.9,-1.786l0,-14.302c-25.2,1.8 -113.294,1.8 -132.194,1.8Z" style="fill-rule:nonzero;stroke:#fff;stroke-width:8.33px;"/><path d="M2613.74,2770.55c13.51,-0.901 24.318,-1.801 44.132,-1.801c25.219,-0 36.927,0.9 50.437,1.801c14.411,74.728 32.403,192.673 40.497,260.199c2.698,22.509 -8.993,29.711 -22.484,31.512l-0.899,1.786l-0,14.302c25.182,-1.8 53.961,-1.8 72.848,-1.8c18.886,-0 57.558,-0 82.739,1.8l0,-14.302l-0.898,-1.786c-19.786,-3.601 -32.377,-15.306 -36.874,-38.715c-44.967,-216.082 -75.545,-407.685 -117.815,-701.085l-11.71,0c-18.914,17.1 -41.43,31.5 -61.245,42.3l-4.503,4.5c-82.844,472.416 -90.933,516.533 -121.492,651.584c-5.393,22.509 -16.179,35.114 -36.851,41.416l-0.899,1.786l-0,14.302c25.166,-1.8 42.244,-1.8 61.119,-1.8c18.875,-0 26.07,-0 51.289,1.8l-0,-14.302l-0.901,-1.786c-18.914,-4.502 -29.716,-10.804 -27.02,-34.213c10.808,-89.134 24.318,-167.464 40.53,-257.498Zm44.132,-30.489c-13.51,0 -26.119,-0.9 -40.529,-1.8c13.51,-78.3 30.622,-181.8 46.834,-283.5c10.808,89.1 25.218,196.2 40.53,283.5c-16.212,0.9 -32.424,1.8 -46.835,1.8Z" style="fill-rule:nonzero;stroke:#fff;stroke-width:8.33px;"/><path d="M3229.42,2707.6c-0,27.004 0.897,57.609 2.692,88.213c-8.096,-42.306 -20.704,-88.213 -44.118,-150.323c-77.448,-207.931 -91.856,-252.038 -103.564,-306.836l-35.121,0c-18.853,0 -55.689,0 -80.889,-1.8l-0,14.302l0.9,1.786c14.4,5.405 39.6,33.309 39.6,81.916l-0,272.742c-0,252.038 -2.7,289.844 -6.3,315.948c-3.6,23.404 -15.3,33.305 -33.3,38.706l-0.9,1.786l-0,14.302c25.2,-1.8 40.5,-1.8 59.344,-1.8c18.843,-0 34.153,-0 59.368,1.8l0,-14.302l-0.9,-1.786c-18.011,-5.401 -29.719,-15.302 -33.321,-38.706c-3.602,-26.104 -6.304,-63.91 -6.304,-315.948c0,-34.205 0,-97.215 -2.692,-208.832c58.526,152.074 147.681,404.974 208.835,587.674l1.795,0.9l14.362,-0c-1.8,-108.9 -1.8,-264.6 -1.8,-379.8c0,-252 2.7,-289.8 6.3,-315.9c3.6,-23.4 15.3,-33.3 33.3,-38.7l0.9,-1.786l0,-14.302c-25.2,1.8 -40.5,1.8 -59.343,1.8c-18.844,0 -34.154,0 -59.37,-1.8l0,14.302l0.901,1.786c18.011,5.4 29.718,15.3 33.32,38.7c3.602,26.114 6.305,74.721 6.305,315.958Z" style="fill-rule:nonzero;stroke:#fff;stroke-width:8.33px;"/><path d="M3502.94,2770.55c13.51,-0.901 24.318,-1.801 44.132,-1.801c25.219,-0 36.927,0.9 50.437,1.801c14.411,74.728 32.403,192.673 40.497,260.199c2.698,22.509 -8.993,29.711 -22.484,31.512l-0.899,1.786l-0,14.302c25.182,-1.8 53.961,-1.8 72.848,-1.8c18.886,-0 57.558,-0 82.739,1.8l0,-14.302l-0.898,-1.786c-19.786,-3.601 -32.377,-15.306 -36.874,-38.715c-44.967,-216.082 -75.545,-407.685 -117.815,-701.085l-11.71,0c-18.914,17.1 -41.43,31.5 -61.245,42.3l-4.503,4.5c-82.844,472.416 -90.933,516.533 -121.492,651.584c-5.393,22.509 -16.179,35.114 -36.851,41.416l-0.899,1.786l-0,14.302c25.166,-1.8 42.244,-1.8 61.119,-1.8c18.875,-0 26.07,-0 51.289,1.8l-0,-14.302l-0.901,-1.786c-18.914,-4.502 -29.716,-10.804 -27.02,-34.213c10.808,-89.134 24.318,-167.464 40.53,-257.498Zm44.132,-30.489c-13.51,0 -26.119,-0.9 -40.529,-1.8c13.51,-78.3 30.622,-181.8 46.834,-283.5c10.808,89.1 25.218,196.2 40.53,283.5c-16.212,0.9 -32.424,1.8 -46.835,1.8Z" style="fill-rule:nonzero;stroke:#fff;stroke-width:8.33px;"/><path d="M4181.62,2707.6c-0,252.042 -2.703,289.848 -6.307,315.953c-3.604,23.403 -15.317,33.305 -33.338,38.706l-0.901,1.786l0,14.302c25.229,-1.8 60.317,-1.8 79.19,-1.8c18.872,-0 53.961,-0 79.189,1.8l0,-14.302l-0.901,-1.786c-18.02,-5.401 -29.733,-15.303 -33.338,-38.706c-3.604,-26.105 -6.307,-63.911 -6.307,-315.953c0,-200.734 0.901,-288.049 3.604,-340.253l9.912,-0c28.832,-0 43.248,11.697 57.665,45.003c10.812,26.104 20.723,71.112 28.832,130.522l1.789,0.9l22.398,0c-2.7,-50.408 -5.4,-172.829 -5.4,-206.913c-55.728,1.8 -101.68,1.8 -157.443,1.8c-55.763,0 -101.715,0 -157.469,-1.8c-0,34.084 -3.583,156.505 -5.375,206.913l22.396,0l1.791,-0.9c8.11,-59.41 17.12,-104.418 28.833,-130.522c14.416,-33.306 28.832,-45.003 57.665,-45.003l9.911,-0c2.703,52.204 3.604,139.519 3.604,340.253Z" style="fill-rule:nonzero;stroke:#fff;stroke-width:8.33px;"/><path d="M4832.21,3062.26c-15.3,-4.501 -31.5,-23.407 -35.1,-45.014c-15.282,-77.425 -26.068,-146.747 -39.551,-246.679c-8.09,-62.12 -22.471,-84.543 -81.868,-89.023c72.879,-11.687 120.519,-81.913 120.519,-175.547c0,-92.734 -46.741,-172.737 -156.557,-169.137c-41.443,1.8 -62.112,1.8 -80.086,1.8c-18.873,0 -53.944,0 -79.144,-1.8l-0,14.351l0.9,1.793c18,5.379 29.7,15.243 33.3,38.651c3.6,26.11 6.3,63.924 6.3,315.891c-0,252.081 -2.7,289.893 -6.3,316.002c-3.6,23.407 -15.3,33.31 -33.3,38.712l-0.9,1.786l-0,14.302c25.2,-1.8 60.271,-1.8 79.144,-1.8c18.872,-0 53.959,-0 79.185,1.8l0,-14.302l-0.901,-1.786c-18.018,-5.402 -29.73,-15.305 -33.334,-38.712c-3.604,-26.109 -6.307,-82.827 -6.307,-320.5l23.425,-0c36.037,-0 43.244,32.407 46.848,68.419c13.514,126.941 27.028,216.969 39.639,303.295l1.797,1.786c35.955,-0 97.991,-0 123.191,1.8l0,-14.302l-0.9,-1.786Zm-209.674,-384.3l-24.326,0c0,-200.773 0.901,-258.395 3.604,-310.612l21.623,-0c52.254,-0 83.786,45.015 83.786,149.453c-0,106.239 -28.83,161.159 -84.687,161.159Z" style="fill-rule:nonzero;stroke:#fff;stroke-width:8.33px;"/><path d="M5010.44,2770.55c13.51,-0.901 24.318,-1.801 44.132,-1.801c25.219,-0 36.927,0.9 50.437,1.801c14.411,74.728 32.403,192.673 40.497,260.199c2.698,22.509 -8.993,29.711 -22.484,31.512l-0.899,1.786l-0,14.302c25.182,-1.8 53.961,-1.8 72.848,-1.8c18.886,-0 57.558,-0 82.739,1.8l0,-14.302l-0.898,-1.786c-19.786,-3.601 -32.377,-15.306 -36.874,-38.715c-44.967,-216.082 -75.545,-407.685 -117.815,-701.085l-11.71,0c-18.914,17.1 -41.43,31.5 -61.245,42.3l-4.503,4.5c-82.844,472.416 -90.933,516.533 -121.492,651.584c-5.393,22.509 -16.179,35.114 -36.851,41.416l-0.899,1.786l-0,14.302c25.166,-1.8 42.244,-1.8 61.119,-1.8c18.875,-0 26.07,-0 51.289,1.8l-0,-14.302l-0.901,-1.786c-18.914,-4.502 -29.716,-10.804 -27.02,-34.213c10.808,-89.134 24.318,-167.464 40.53,-257.498Zm44.132,-30.489c-13.51,0 -26.119,-0.9 -40.529,-1.8c13.51,-78.3 30.622,-181.8 46.834,-283.5c10.808,89.1 25.218,196.2 40.53,283.5c-16.212,0.9 -32.424,1.8 -46.835,1.8Z" style="fill-rule:nonzero;stroke:#fff;stroke-width:8.33px;"/><path d="M5449.67,2338.66c-18.873,0 -53.944,0 -79.144,-1.8l-0,14.302l0.9,1.786c18,5.405 29.7,15.306 33.3,38.71c3.6,26.104 6.3,63.909 6.3,315.948c-0,252.038 -2.7,289.844 -6.3,315.948c-3.6,23.404 -15.3,33.305 -33.3,38.706l-0.9,1.786l-0,14.302c25.2,-1.8 60.271,-1.8 79.144,-1.8c18.872,-0 53.943,-0 79.143,1.8l0,-14.302l-0.9,-1.786c-18,-5.401 -29.7,-15.302 -33.3,-38.706c-3.6,-26.104 -6.3,-63.91 -6.3,-315.948c0,-252.039 2.7,-289.844 6.3,-315.948c3.6,-23.404 15.3,-33.305 33.3,-38.71l0.9,-1.786l0,-14.302c-25.2,1.8 -60.271,1.8 -79.143,1.8Z" style="fill-rule:nonzero;stroke:#fff;stroke-width:8.33px;"/><path d="M5776.31,2707.6c0,-252.042 2.7,-289.849 6.3,-315.953c3.6,-23.404 15.3,-33.306 33.3,-38.702l0.9,-1.786l0,-14.302c-25.2,1.8 -60.271,1.8 -79.143,1.8c-18.873,0 -53.944,0 -79.144,-1.8l-0,14.302l0.9,1.786c18,5.396 29.7,15.298 33.3,38.702c3.6,26.104 6.3,63.911 6.3,315.953c-0,251.945 -2.7,289.745 -6.3,315.845c-3.6,23.4 -15.3,33.3 -33.3,38.7l-0.9,1.8l-0,14.4c25.2,-1.8 60.271,-1.8 79.144,-1.8c86.382,-0 144.029,-0 197.068,1.8c0,-43.99 2.688,-156.509 5.375,-206.918l-22.395,0l-1.792,0.901c-8.106,59.41 -20.717,103.517 -33.327,128.721c-17.114,33.306 -32.426,46.808 -62.15,46.808c-21.617,0 -37.831,-8.101 -39.632,-31.505c-2.704,-36.006 -4.504,-123.321 -4.504,-308.752Z" style="fill-rule:nonzero;stroke:#fff;stroke-width:8.33px;"/><path d="M6190.36,2359.25c24.322,-0 37.834,13.497 51.346,43.202c11.71,25.205 18.916,62.111 21.619,102.618l1.792,0.9l22.395,-0c0,-36.906 0,-104.418 0.9,-142.224c-24.191,-24.226 -51.21,-35.884 -95.349,-35.884c-73.826,0 -134.038,53.887 -134.038,193.41c-0,65.711 26.961,132.323 85.395,211.536c62.193,83.714 77.505,140.423 77.505,203.434c-0,87.315 -27.021,119.72 -67.551,119.72c-24.317,0 -41.43,-13.502 -57.642,-45.008c-12.609,-24.304 -20.715,-58.509 -27.02,-100.816l-1.791,-0.901l-22.396,0c-0,36.907 -0,102.618 -0.9,140.424c25.087,24.237 62.915,37.689 108.849,37.689c81.034,-0 153.838,-67.394 153.838,-204.217c0,-69.312 -33.256,-141.324 -97.997,-225.938c-54.987,-71.112 -73.003,-113.419 -73.003,-210.635c0,-46.808 22.52,-87.31 54.048,-87.31Z" style="fill-rule:nonzero;stroke:#fff;stroke-width:8.33px;"/><rect x="1842.47" y="3144.1" width="4518.9" height="45"/></g><g><path d="M5234.21,81.723c0,-0 -159.585,374.698 -159.585,535.283c0,88.077 71.508,159.585 159.585,159.585c88.078,-0 159.586,-71.508 159.586,-159.585c-0,-160.585 -159.586,-535.283 -159.586,-535.283Z" style="fill:#1f73d1;"/><path d="M5234.21,776.591c88.078,-0 159.586,-71.508 159.586,-159.585c-0,-160.585 -159.586,-535.283 -159.586,-535.283" style="fill:#0099db;"/></g><g><path d="M159.585,81.723c0,-0 -159.585,374.698 -159.585,535.283c0,88.077 71.508,159.585 159.585,159.585c88.078,-0 159.585,-71.508 159.585,-159.585c0,-160.585 -159.585,-535.283 -159.585,-535.283Z" style="fill:#1f73d1;"/><path d="M159.585,776.591c88.078,-0 159.585,-71.508 159.585,-159.585c0,-160.585 -159.585,-535.283 -159.585,-535.283" style="fill:#0099db;"/></g></svg>